<?xml version="1.0" standalone="no"?><!DOCTYPE svg PUBLIC "-//W3C//DTD SVG 1.1//EN" "http://www.w3.org/Graphics/SVG/1.1/DTD/svg11.dtd"><svg t="1542243518286" class="icon" style="" viewBox="0 0 1024 1024" version="1.1" xmlns="http://www.w3.org/2000/svg" p-id="1161" xmlns:xlink="http://www.w3.org/1999/xlink" width="200" height="200"><defs><style type="text/css"></style></defs><path d="M951.7 895.9 746.8 691.1c53.9-66.2 86.2-150.6 86.2-242.6C833 236.1 660.9 64 448.5 64S64 236.1 64 448.5 236.1 833 448.5 833c91.6 0 175.7-32 241.7-85.5l204.9 204.9c7.8 7.8 18 11.7 28.3 11.7 10.2 0 20.5-3.9 28.3-11.7C967.3 936.8 967.3 911.5 951.7 895.9zM570.1 736.5c-38.5 16.3-79.4 24.5-121.6 24.5-42.2 0-83.1-8.3-121.6-24.5-37.2-15.7-70.6-38.3-99.4-67-28.7-28.7-51.3-62.2-67-99.4-16.3-38.5-24.5-79.4-24.5-121.6s8.3-83.1 24.5-121.6c15.7-37.2 38.3-70.6 67-99.4 28.7-28.7 62.2-51.3 99.4-67 38.5-16.3 79.4-24.5 121.6-24.5 42.2 0 83.1 8.3 121.6 24.5 37.2 15.7 70.6 38.3 99.4 67 28.7 28.7 51.3 62.1 67 99.4 16.3 38.5 24.5 79.4 24.5 121.6s-8.3 83.1-24.5 121.6c-15.7 37.2-38.3 70.6-67 99.4C640.7 698.2 607.3 720.7 570.1 736.5z" p-id="1162"></path></svg>